<svg xmlns="http://www.w3.org/2000/svg" viewBox="0 0 48 48" fill="none">
  <defs>
    <linearGradient id="g" x1="7" y1="4" x2="41" y2="44" gradientUnits="userSpaceOnUse">
      <stop stop-color="#8b5cf6"/>
      <stop offset="0.55" stop-color="#6d28d9"/>
      <stop offset="1" stop-color="#4c1d95"/>
    </linearGradient>
  </defs>
  <path d="M21 3.9a6 6 0 0 1 6 0l12.99 7.5a6 6 0 0 1 3 5.2v14.8a6 6 0 0 1-3 5.2L27 44.1a6 6 0 0 1-6 0l-12.99-7.5a6 6 0 0 1-3-5.2V16.6a6 6 0 0 1 3-5.2Z" fill="url(#g)"/>
  <circle cx="24" cy="24" r="9.5" stroke="#fff" stroke-opacity="0.5" stroke-width="1.6"/>
  <circle cx="24" cy="24" r="5" stroke="#fff" stroke-opacity="0.85" stroke-width="1.6"/>
  <path d="M24 24 33.3 18.2 A11 11 0 0 1 33.6 30.6 Z" fill="#fff" fill-opacity="0.30"/>
  <circle cx="24" cy="24" r="2.2" fill="#fff"/>
</svg>
